<svg width="24" height="24" viewBox="0 0 24 24" fill="none" xmlns="http://www.w3.org/2000/svg">
<g clip-path="url(#clip0_39_23)">
<path d="M3.66972 4.22781C5.22328 3.50093 6.88442 2.97267 8.6211 2.67188C8.83439 3.05749 9.08357 3.57614 9.25537 3.98873C11.1015 3.71109 12.9307 3.71109 14.7428 3.98873C14.9146 3.57614 15.1694 3.05749 15.3846 2.67188C17.1232 2.97267 18.7862 3.50287 20.3398 4.23166C23.4734 8.96686 24.3228 13.5845 23.8981 18.1365C21.8197 19.6885 19.8056 20.6313 17.8254 21.2483C17.3365 20.5754 16.9005 19.8601 16.5248 19.1063C17.2402 18.8344 17.9255 18.499 18.5729 18.1095C18.4012 17.9822 18.2331 17.8492 18.0708 17.7123C14.1218 19.5594 9.8311 19.5594 5.92926 17.7123C5.76503 17.8492 5.59705 17.9822 5.42716 18.1095C6.07652 18.5009 6.76362 18.8363 7.47904 19.1082C7.1034 19.8601 6.66923 20.5774 6.17844 21.2502C4.19637 20.6333 2.18034 19.6905 0.102005 18.1365C-0.396351 12.8595 0.953335 8.28434 3.66972 4.22781ZM15.9868 15.337C17.1723 15.337 18.1444 14.2303 18.1444 12.8826C18.1444 11.535 17.193 10.4264 15.9868 10.4264C14.7806 10.4264 13.8084 11.533 13.8292 12.8826C13.8273 14.2303 14.7806 15.337 15.9868 15.337ZM8.01326 15.337C9.19871 15.337 10.1709 14.2303 10.1709 12.8826C10.1709 11.535 9.21951 10.4264 8.01326 10.4264C6.80704 10.4264 5.83488 11.533 5.85564 12.8826C5.85564 14.2303 6.80704 15.337 8.01326 15.337Z" fill="#5865F2"/>
</g>
<defs>
<clipPath id="clip0_39_23">
<rect width="24" height="24" fill="white"/>
</clipPath>
</defs>
</svg>
