<svg width="317" height="317" viewBox="0 0 317 317" fill="none" xmlns="http://www.w3.org/2000/svg">
<path d="M81.864 133V86.92H93.256V123.144H110.792V133H81.864ZM116.754 115.4C116.754 111.261 117.522 107.848 119.058 105.16C120.594 102.429 122.706 100.403 125.394 99.08C128.124 97.7147 131.26 97.032 134.802 97.032C138.3 97.032 141.415 97.7147 144.146 99.08C146.876 100.403 149.01 102.429 150.546 105.16C152.082 107.848 152.85 111.261 152.85 115.4C152.85 119.496 152.082 122.909 150.546 125.64C149.01 128.328 146.876 130.355 144.146 131.72C141.415 133.043 138.3 133.704 134.802 133.704C131.26 133.704 128.124 133.043 125.394 131.72C122.663 130.355 120.53 128.328 118.994 125.64C117.5 122.909 116.754 119.496 116.754 115.4ZM128.21 115.4C128.21 118.728 128.743 121.245 129.81 122.952C130.919 124.659 132.583 125.512 134.802 125.512C137.02 125.512 138.663 124.659 139.73 122.952C140.839 121.245 141.394 118.728 141.394 115.4C141.394 112.029 140.839 109.491 139.73 107.784C138.663 106.077 137.02 105.224 134.802 105.224C132.583 105.224 130.919 106.077 129.81 107.784C128.743 109.491 128.21 112.029 128.21 115.4ZM172.514 148.36C170.807 148.36 168.972 148.232 167.01 147.976C165.09 147.72 163.532 147.315 162.338 146.76V137.864H163.234C164.343 138.376 165.687 138.76 167.266 139.016C168.844 139.315 170.295 139.464 171.618 139.464C173.751 139.464 175.607 139.229 177.186 138.76C178.807 138.291 180.066 137.501 180.962 136.392C181.858 135.283 182.306 133.747 182.306 131.784V110.984C182.306 109.448 182.37 108.04 182.498 106.76C182.626 105.48 182.882 104.584 183.266 104.072L184.226 106.056C183.97 106.056 183.351 105.992 182.37 105.864C181.431 105.693 180.386 105.608 179.234 105.608C177.143 105.608 175.415 106.013 174.05 106.824C172.727 107.635 171.746 108.765 171.106 110.216C170.508 111.667 170.21 113.309 170.21 115.144C170.21 118.173 170.935 120.499 172.385 122.12C173.836 123.741 176.119 124.552 179.234 124.552C179.831 124.552 180.428 124.531 181.026 124.488C181.666 124.403 182.412 124.211 183.266 123.912L183.202 132.168C182.05 132.381 181.004 132.531 180.066 132.616C179.17 132.701 178.316 132.744 177.506 132.744C173.708 132.744 170.402 132.104 167.586 130.824C164.77 129.544 162.594 127.624 161.058 125.064C159.522 122.461 158.754 119.219 158.754 115.336C158.754 112.221 159.287 109.512 160.354 107.208C161.42 104.904 162.914 103.005 164.834 101.512C166.796 100.019 169.079 98.9093 171.682 98.184C174.284 97.416 177.1 97.032 180.13 97.032C183.031 97.032 185.655 97.3307 188.002 97.928C190.348 98.5253 192.29 99.1867 193.826 99.912L194.082 100.424C193.911 101.192 193.783 102.216 193.698 103.496C193.655 104.776 193.612 106.077 193.569 107.4C193.569 108.723 193.569 109.832 193.569 110.728V130.376C193.569 134.515 192.674 137.907 190.882 140.552C189.132 143.197 186.679 145.16 183.522 146.44C180.364 147.72 176.695 148.36 172.514 148.36ZM201.066 115.4C201.066 111.261 201.834 107.848 203.37 105.16C204.906 102.429 207.018 100.403 209.706 99.08C212.437 97.7147 215.573 97.032 219.114 97.032C222.613 97.032 225.727 97.7147 228.458 99.08C231.189 100.403 233.322 102.429 234.858 105.16C236.394 107.848 237.162 111.261 237.162 115.4C237.162 119.496 236.394 122.909 234.858 125.64C233.322 128.328 231.189 130.355 228.458 131.72C225.727 133.043 222.613 133.704 219.114 133.704C215.573 133.704 212.437 133.043 209.706 131.72C206.975 130.355 204.842 128.328 203.306 125.64C201.813 122.909 201.066 119.496 201.066 115.4ZM212.522 115.4C212.522 118.728 213.055 121.245 214.122 122.952C215.231 124.659 216.895 125.512 219.114 125.512C221.333 125.512 222.975 124.659 224.042 122.952C225.151 121.245 225.706 118.728 225.706 115.4C225.706 112.029 225.151 109.491 224.042 107.784C222.975 106.077 221.333 105.224 219.114 105.224C216.895 105.224 215.231 106.077 214.122 107.784C213.055 109.491 212.522 112.029 212.522 115.4ZM3.55825 169.92H41.7023V179.776H28.2623V216H16.9343V179.776H3.55825V169.92ZM62.9048 216.704C59.7901 216.704 56.9101 216.363 54.2648 215.68C51.6621 214.997 49.4221 213.952 47.5448 212.544C45.7101 211.093 44.2808 209.195 43.2568 206.848C42.2754 204.501 41.7848 201.685 41.7848 198.4C41.7848 194.56 42.5101 191.275 43.9608 188.544C45.4114 185.771 47.4808 183.659 50.1688 182.208C52.8568 180.757 56.0354 180.032 59.7048 180.032C63.6728 180.032 66.9154 180.864 69.4328 182.528C71.9501 184.192 73.7634 186.475 74.8728 189.376C76.0248 192.277 76.4941 195.563 76.2808 199.232L76.2168 201.536H48.6968V194.88H65.4648V194.56C65.4648 192.427 64.9741 190.784 63.9928 189.632C63.0541 188.437 61.5608 187.84 59.5128 187.84C58.1901 187.84 57.0381 188.139 56.0568 188.736C55.1181 189.333 54.3714 190.336 53.8168 191.744C53.3048 193.109 53.0488 194.987 53.0488 197.376V199.424C53.0488 201.685 53.4968 203.456 54.3928 204.736C55.3314 205.973 56.6114 206.869 58.2328 207.424C59.8541 207.936 61.7528 208.192 63.9288 208.192C65.8914 208.192 67.6834 208 69.3048 207.616C70.9688 207.232 72.2488 206.784 73.1448 206.272H73.7848V215.04C72.5048 215.552 70.9688 215.957 69.1768 216.256C67.4274 216.555 65.3368 216.704 62.9048 216.704ZM83.7703 216V194.368C83.7703 193.515 83.7489 192.427 83.7063 191.104C83.7063 189.739 83.6423 188.416 83.5143 187.136C83.4289 185.813 83.3009 184.768 83.1302 184L83.3223 183.488C84.7303 182.891 86.3303 182.336 88.1223 181.824C89.9143 181.312 91.8129 180.885 93.8183 180.544C95.8663 180.203 97.9143 180.032 99.9623 180.032C102.096 180.032 104.165 180.267 106.17 180.736C108.176 181.205 109.989 182.037 111.61 183.232C113.274 184.384 114.597 186.005 115.578 188.096C116.56 190.187 117.05 192.832 117.05 196.032V216H105.786V196.416C105.786 194.411 105.509 192.875 104.954 191.808C104.4 190.741 103.61 189.995 102.586 189.568C101.562 189.141 100.41 188.928 99.1303 188.928C97.8929 188.928 96.7196 189.077 95.6103 189.376C94.5009 189.675 93.4983 189.973 92.6023 190.272L94.2023 187.776C94.5009 188.416 94.7143 189.269 94.8423 190.336C94.9703 191.36 95.0343 192.661 95.0343 194.24V216H83.7703ZM127.418 216V196.416C127.418 194.411 127.141 192.875 126.586 191.808C126.032 190.741 125.242 189.995 124.218 189.568C123.194 189.141 121.978 188.928 120.57 188.928C119.674 188.928 118.757 189.013 117.818 189.184C116.922 189.355 116.09 189.568 115.322 189.824L109.562 182.784C111.269 182.016 113.232 181.376 115.45 180.864C117.669 180.309 119.93 180.032 122.234 180.032C124.282 180.032 126.266 180.245 128.186 180.672C130.149 181.099 131.92 181.888 133.498 183.04C135.077 184.149 136.336 185.749 137.274 187.84C138.213 189.931 138.682 192.661 138.682 196.032V216H127.418ZM148.145 230.848V194.112C148.145 193.259 148.124 192.192 148.081 190.912C148.081 189.632 148.017 188.352 147.889 187.072C147.804 185.792 147.676 184.768 147.505 184L147.697 183.488C150.215 182.464 152.753 181.632 155.313 180.992C157.916 180.352 160.668 180.032 163.569 180.032C166.087 180.032 168.497 180.373 170.801 181.056C173.148 181.696 175.239 182.741 177.073 184.192C178.908 185.6 180.359 187.477 181.425 189.824C182.492 192.171 183.025 195.029 183.025 198.4C183.025 200.789 182.663 203.093 181.937 205.312C181.212 207.531 180.081 209.493 178.545 211.2C177.052 212.907 175.132 214.272 172.785 215.296C170.439 216.277 167.601 216.768 164.273 216.768C163.036 216.768 161.841 216.683 160.689 216.512C159.537 216.384 158.684 216.235 158.129 216.064L158.641 207.936C159.068 208.149 159.601 208.32 160.241 208.448C160.924 208.533 161.713 208.576 162.609 208.576C165.809 208.576 168.092 207.659 169.457 205.824C170.823 203.947 171.505 201.472 171.505 198.4C171.505 195.371 170.823 192.96 169.457 191.168C168.135 189.333 166.001 188.416 163.057 188.416C161.82 188.416 160.668 188.587 159.601 188.928C158.535 189.269 157.831 189.611 157.489 189.952L158.321 187.136C158.791 187.776 159.089 188.587 159.217 189.568C159.345 190.549 159.409 191.808 159.409 193.344V230.848H148.145ZM190.458 216V178.048C190.458 177.152 190.436 176.064 190.394 174.784C190.394 173.461 190.33 172.181 190.202 170.944C190.116 169.664 189.988 168.64 189.818 167.872L190.01 167.36H201.722V216H190.458ZM226.054 216.768C220.422 216.768 216.177 215.936 213.318 214.272C210.46 212.565 209.03 209.664 209.03 205.568C209.03 202.965 209.67 200.853 210.95 199.232C212.273 197.611 214.086 196.437 216.39 195.712C218.694 194.944 221.318 194.56 224.262 194.56C225.713 194.56 227.036 194.645 228.23 194.816C229.425 194.987 230.556 195.2 231.622 195.456V202.048C230.982 201.835 230.129 201.643 229.062 201.472C227.996 201.301 226.972 201.216 225.99 201.216C223.729 201.216 222.044 201.536 220.934 202.176C219.868 202.816 219.334 203.883 219.334 205.376C219.334 206.869 219.868 207.915 220.934 208.512C222.044 209.109 223.601 209.408 225.606 209.408C226.929 209.408 228.209 209.28 229.446 209.024C230.684 208.725 231.729 208.235 232.582 207.552L231.302 210.688C231.004 210.005 230.769 209.387 230.598 208.832C230.428 208.277 230.3 207.701 230.214 207.104C230.129 206.464 230.065 205.717 230.022 204.864C230.022 203.968 230.022 202.859 230.022 201.536V194.816C230.022 193.067 229.724 191.723 229.126 190.784C228.529 189.845 227.612 189.227 226.374 188.928C225.18 188.587 223.665 188.416 221.83 188.416C219.996 188.416 218.246 188.587 216.582 188.928C214.961 189.227 213.638 189.611 212.614 190.08H211.974V181.504C213.51 181.077 215.217 180.736 217.094 180.48C219.014 180.181 221.041 180.032 223.174 180.032C225.777 180.032 228.166 180.267 230.342 180.736C232.518 181.205 234.396 182.016 235.974 183.168C237.596 184.277 238.833 185.835 239.686 187.84C240.54 189.803 240.966 192.341 240.966 195.456V203.2C240.966 204.096 240.988 205.205 241.03 206.528C241.073 207.851 241.137 209.152 241.222 210.432C241.308 211.712 241.457 212.736 241.67 213.504L241.414 214.016C239.921 214.571 238.342 215.061 236.678 215.488C235.014 215.872 233.286 216.171 231.494 216.384C229.702 216.64 227.889 216.768 226.054 216.768ZM266.547 216.512C263.433 216.512 260.702 216.107 258.355 215.296C256.051 214.443 254.238 213.035 252.915 211.072C251.635 209.067 250.995 206.379 250.995 203.008V172.224H262.259V202.176C262.259 204.139 262.729 205.547 263.667 206.4C264.649 207.211 266.163 207.616 268.211 207.616C268.979 207.616 269.726 207.531 270.451 207.36C271.177 207.189 271.817 206.997 272.371 206.784H273.075V215.616C272.137 215.915 271.155 216.128 270.131 216.256C269.107 216.427 267.913 216.512 266.547 216.512ZM245.299 189.696V180.992H271.475V189.696H245.299ZM298.592 216.704C295.478 216.704 292.598 216.363 289.952 215.68C287.35 214.997 285.11 213.952 283.232 212.544C281.398 211.093 279.968 209.195 278.944 206.848C277.963 204.501 277.472 201.685 277.472 198.4C277.472 194.56 278.198 191.275 279.648 188.544C281.099 185.771 283.168 183.659 285.856 182.208C288.544 180.757 291.723 180.032 295.392 180.032C299.36 180.032 302.603 180.864 305.12 182.528C307.638 184.192 309.451 186.475 310.56 189.376C311.712 192.277 312.182 195.563 311.968 199.232L311.904 201.536H284.384V194.88H301.152V194.56C301.152 192.427 300.662 190.784 299.68 189.632C298.742 188.437 297.248 187.84 295.2 187.84C293.878 187.84 292.726 188.139 291.744 188.736C290.806 189.333 290.059 190.336 289.504 191.744C288.992 193.109 288.736 194.987 288.736 197.376V199.424C288.736 201.685 289.184 203.456 290.08 204.736C291.019 205.973 292.299 206.869 293.92 207.424C295.542 207.936 297.44 208.192 299.616 208.192C301.579 208.192 303.371 208 304.992 207.616C306.656 207.232 307.936 206.784 308.832 206.272H309.472V215.04C308.192 215.552 306.656 215.957 304.864 216.256C303.115 216.555 301.024 216.704 298.592 216.704Z" fill="black"/>
</svg>
